<svg width="16" height="16" viewBox="0 0 16 16" fill="none" xmlns="http://www.w3.org/2000/svg">
<path d="M16 8.16675C16 8.16675 13 2.66675 8 2.66675C3 2.66675 0 8.16675 0 8.16675C0 8.16675 3 13.6667 8 13.6667C13 13.6667 16 8.16675 16 8.16675ZM1.17 8.16675C1.65 7.43675 2.21 6.74675 2.83 6.12675C4.12 4.83675 5.88 3.66675 8 3.66675C10.12 3.66675 11.88 4.83675 13.17 6.12675C13.79 6.74675 14.35 7.43675 14.83 8.16675C14.77 8.25675 14.71 8.34675 14.64 8.45675C14.3 8.93675 13.81 9.57675 13.17 10.2167C11.88 11.4967 10.12 12.6667 8 12.6667C5.88 12.6667 4.12 11.4967 2.83 10.2067C2.21 9.58675 1.66 8.89675 1.17 8.16675Z" fill="#757575"/>
<path d="M8 5.66675C6.62 5.66675 5.5 6.78675 5.5 8.16675C5.5 9.54675 6.62 10.6667 8 10.6667C9.38 10.6667 10.5 9.54675 10.5 8.16675C10.5 6.78675 9.38 5.66675 8 5.66675ZM4.5 8.16675C4.5 6.23675 6.07 4.66675 8 4.66675C9.93 4.66675 11.5 6.23675 11.5 8.16675C11.5 10.0967 9.93 11.6667 8 11.6667C6.07 11.6667 4.5 10.0967 4.5 8.16675Z" fill="#757575"/>
</svg>
