<svg width="16" height="16" viewBox="0 0 16 16" fill="none" xmlns="http://www.w3.org/2000/svg">
<path d="M13.36 10.9233C15.06 9.40334 16 7.68334 16 7.68334C16 7.68334 13 2.18335 8 2.18335C7.03993 2.18335 6.08996 2.38335 5.20996 2.77335L5.97996 3.54335C6.62997 3.31335 7.30993 3.19335 8 3.18335C10.12 3.18335 11.88 4.35336 13.17 5.64336C13.79 6.26336 14.35 6.95334 14.83 7.68334C14.77 7.77334 14.71 7.86334 14.64 7.97334C14.3 8.45334 13.8 9.09334 13.17 9.73334C13 9.89334 12.83 10.0633 12.65 10.2133L13.36 10.9233Z" fill="#757575"/>
<path d="M11.3001 8.86346C11.9501 7.04339 11.0001 5.04342 9.18007 4.39342C8.42007 4.12342 7.59007 4.12342 6.82007 4.39342L7.64007 5.21342C9.01007 5.01342 10.2701 5.96342 10.4701 7.33339C10.5001 7.56339 10.5001 7.80339 10.4701 8.04339C10.4801 8.04339 11.3001 8.86346 11.3001 8.86346ZM8.35007 10.1635L9.17007 10.9835C7.36007 11.6335 5.35006 10.6835 4.70006 8.86346C4.43006 8.10339 4.43006 7.27339 4.70006 6.50342L5.53006 7.33339C5.33006 8.70346 6.28006 9.96346 7.65007 10.1635C7.88007 10.1935 8.12007 10.1935 8.35007 10.1635Z" fill="#757575"/>
<path d="M3.35001 5.15326C3.17001 5.31326 3.00001 5.48327 2.83001 5.64327C2.21001 6.26327 1.66001 6.95325 1.17 7.68325L1.37001 7.97325C1.70001 8.45325 2.20001 9.09325 2.83001 9.73325C4.12001 11.0233 5.88001 12.1833 8 12.1833C8.72 12.1833 9.39 12.0533 10.02 11.8233L10.79 12.5933C9.91 12.9833 8.96 13.1833 8 13.1833C3.00001 13.1833 0 7.68325 0 7.68325C0 7.68325 0.94 5.96327 2.64001 4.44326L3.35001 5.15326ZM13.65 14.0433L1.65001 2.04325L2.35001 1.33325L14.3501 13.3333L13.65 14.0433Z" fill="#757575"/>
</svg>
